<svg xmlns="http://www.w3.org/2000/svg" viewBox="0 0 202.19 70.08"><defs><style>.cls-1{fill:#eeb466;}</style></defs><g id="Layer_2" data-name="Layer 2"><g id="Layer_5" data-name="Layer 5"><g id="Layer_2-2" data-name="Layer 2"><g id="Layer_1-2" data-name="Layer 1-2"><path class="cls-1" d="M16.44,21l14.88-5.41v38H10c-3.31,0-5.81-.9-7.48-2.69A9.11,9.11,0,0,1,0,44.5q0-5.09,5.26-9.76t14.85-7.08v-4L16.44,25ZM9.47.33a6,6,0,0,1,4.36,1.79,5.83,5.83,0,0,1,1.82,4.3,5.92,5.92,0,0,1-1.84,4.36,5.94,5.94,0,0,1-4.34,1.81,5.85,5.85,0,0,1-4.33-1.81,6,6,0,0,1-1.8-4.36,5.87,5.87,0,0,1,1.8-4.3A5.87,5.87,0,0,1,9.47.33Zm10.68,35a10.28,10.28,0,0,0-5.1,1.25,3.25,3.25,0,0,0-1.84,2.74A1.65,1.65,0,0,0,14.34,41a23.81,23.81,0,0,0,5.81.4ZM25.77.44a6,6,0,0,1,4.37,1.79A5.87,5.87,0,0,1,32,6.56a5.81,5.81,0,0,1-1.83,4.31,6,6,0,0,1-4.37,1.8,6,6,0,0,1-4.34-1.8,5.84,5.84,0,0,1-1.79-4.31,5.87,5.87,0,0,1,1.79-4.33A5.91,5.91,0,0,1,25.77.44Z"/><path class="cls-1" d="M55.82,27.58q9.69,8.51,9.69,22.83,0,9.12-5.05,14.39A15.89,15.89,0,0,1,48.6,70.08a15.09,15.09,0,0,1-8.71-2.39q-3.53-2.4-3.52-3.63a.83.83,0,0,1,.94-.94,8.87,8.87,0,0,1,1.63.21,16,16,0,0,0,3.45.4A9.71,9.71,0,0,0,50.48,60a15.19,15.19,0,0,0,2.94-9.62q0-8.06-3.48-8.06A2.74,2.74,0,0,0,48,43L45.8,41.09Z"/><path class="cls-1" d="M71.68,25.88,98.43,1.67A5.29,5.29,0,0,1,101.7,0,1.9,1.9,0,0,1,103,.6a1.9,1.9,0,0,1,.62,1.4,3.67,3.67,0,0,1-1,2.32L85.33,25.12h39.78V53.57H63.66V41.41h50.23v-4.9H75.38Z"/><path class="cls-1" d="M162.81,53.57h-33.1l7.48-15.35,2.8.36q.87,2.84,4.5,2.83h6.1q.18-5-8.49-10,5.66-9.43,10.41-12.85l2.4,1.74a3.43,3.43,0,0,0-1.35,2.73c0,1,.7,2.13,2.11,3.34q7.16,6.27,7.15,15ZM146.63,6A6,6,0,0,1,151,7.77a5.81,5.81,0,0,1,1.8,4.32,5.83,5.83,0,0,1-1.82,4.3,6.16,6.16,0,0,1-8.69,0,5.86,5.86,0,0,1-1.79-4.3A6.13,6.13,0,0,1,146.63,6Z"/><path class="cls-1" d="M186.41,30l15.78-4.83V53.57H161.8V41.41H190V32.92L186.41,34Zm-7.84-18.15a6,6,0,0,1,4.35,1.79,6,6,0,0,1,.09,8.55l-.09.09a6.17,6.17,0,0,1-8.71,0,6,6,0,0,1-.07-8.56l.07-.08A5.94,5.94,0,0,1,178.57,11.87Zm16.33,0a6.06,6.06,0,0,1,4.37,1.79,6,6,0,0,1,0,8.64,6.25,6.25,0,0,1-8.78,0,6.05,6.05,0,0,1-.08-8.56l.08-.08A6,6,0,0,1,194.9,11.87Z"/></g></g></g></g></svg>